<svg width="36" height="36" viewBox="0 0 36 36" fill="none" xmlns="http://www.w3.org/2000/svg">
<path d="M13.4859 35.5367C5.49345 33.4141 -0.0194081 26.2555 5.13518e-05 18.0353C0.0190243 13.3661 1.52567 9.39097 4.55891 6.09114C8.01151 2.32866 11.7502 0.495572 16.8047 0.0324375C18.4267 -0.102319 21.3641 0.206114 22.1464 0.611357C22.8518 0.978168 23.2906 1.7113 23.2906 2.56022C23.2906 3.1007 23.1378 3.40914 22.6231 3.93017C22.3453 4.1486 22.0247 4.3033 21.6823 4.38406C21.1194 4.51444 20.3721 4.45119 20.3721 4.45119C16.1373 4.00752 12.8949 4.77908 9.8621 6.95951C6.4854 9.39097 4.48254 13.1345 4.27286 17.3985C3.91043 24.2677 8.79377 30.4038 15.5652 31.6005C16.3285 31.7353 17.7018 31.7937 18.8845 31.7163C25.0074 31.4074 30.0625 27.0275 31.3974 20.8915C31.6649 19.6563 31.7219 18.8653 31.6265 16.9549C31.6265 16.9549 31.4465 15.9488 31.5754 15.1865C31.6581 14.7195 31.8522 14.2802 32.1412 13.906C33.0383 12.9992 34.0872 12.9798 35.0217 13.8871C35.6322 14.466 35.6896 14.6202 35.8993 16.2796C36.4525 21.0842 34.6977 26.3907 31.3405 30.0564C29.5852 31.9669 28.1739 33.0668 26.228 34.0699C23.2906 35.5557 21.3067 36.0188 17.7592 35.9998C15.6795 35.9998 14.8593 35.9229 13.4859 35.5367Z" fill="#F7934D"/>
<mask id="mask0_8032_2234" style="mask-type:alpha" maskUnits="userSpaceOnUse" x="11" y="10" width="15" height="16">
<rect x="11.1318" y="10.9413" width="14.1567" height="14.1567" fill="#D9D9D9"/>
</mask>
<g mask="url(#mask0_8032_2234)">
<path d="M18.2101 23.9184C17.168 23.9184 16.3176 23.7537 15.6589 23.4243C15.0003 23.095 14.6709 22.6698 14.6709 22.1488C14.6709 21.9128 14.7422 21.6941 14.8847 21.4925C15.0273 21.291 15.2264 21.1165 15.482 20.969L16.411 21.8391C16.3225 21.8784 16.2267 21.9227 16.1235 21.9718C16.0202 22.021 15.9391 22.0799 15.8801 22.1488C16.0079 22.3061 16.3029 22.4437 16.7649 22.5617C17.227 22.6796 17.7087 22.7386 18.2101 22.7386C18.7115 22.7386 19.1957 22.6796 19.6626 22.5617C20.1296 22.4437 20.427 22.3061 20.5548 22.1488C20.486 22.0701 20.3975 22.0062 20.2894 21.9571C20.1812 21.9079 20.078 21.8637 19.9797 21.8243L20.894 20.9395C21.1692 21.0968 21.3806 21.2763 21.5281 21.4778C21.6755 21.6793 21.7493 21.903 21.7493 22.1488C21.7493 22.6698 21.4199 23.095 20.7613 23.4243C20.1026 23.7537 19.2522 23.9184 18.2101 23.9184ZM18.2101 22.1488C16.8239 21.1263 15.7892 20.1334 15.1059 19.17C14.4227 18.2065 14.0811 17.2627 14.0811 16.3386C14.0811 15.6406 14.2064 15.0286 14.4571 14.5027C14.7078 13.9767 15.0298 13.5368 15.423 13.1828C15.8162 12.8289 16.2586 12.5635 16.7502 12.3865C17.2417 12.2096 17.7284 12.1211 18.2101 12.1211C18.6918 12.1211 19.1785 12.2096 19.67 12.3865C20.1616 12.5635 20.604 12.8289 20.9972 13.1828C21.3904 13.5368 21.7124 13.9767 21.9631 14.5027C22.2138 15.0286 22.3391 15.6406 22.3391 16.3386C22.3391 17.2627 21.9975 18.2065 21.3143 19.17C20.631 20.1334 19.5963 21.1263 18.2101 22.1488ZM18.2101 17.4299C18.5345 17.4299 18.8122 17.3143 19.0433 17.0833C19.2743 16.8523 19.3898 16.5746 19.3898 16.2501C19.3898 15.9257 19.2743 15.648 19.0433 15.417C18.8122 15.1859 18.5345 15.0704 18.2101 15.0704C17.8857 15.0704 17.6079 15.1859 17.3769 15.417C17.1459 15.648 17.0304 15.9257 17.0304 16.2501C17.0304 16.5746 17.1459 16.8523 17.3769 17.0833C17.6079 17.3143 17.8857 17.4299 18.2101 17.4299Z" fill="#F7934D"/>
</g>
<path d="M25.3047 10.2517C23.2175 7.76837 24.6064 5.29868 27.2648 3.83106C28.4277 3.07206 29.4723 1.92819 30.0044 0.695303L30.2347 0.000366211L30.5937 0.809251C30.9932 2.09886 31.3361 4.72259 31.0128 4.81747C28.2942 5.61412 25.4568 10.6122 25.3047 10.2517Z" fill="#4D9965"/>
<path d="M27.2614 11.6276C26.2427 11.4264 25.2881 10.7904 25.2881 10.2516C25.2881 9.63597 26.228 7.44369 26.988 6.61672C27.8047 5.69307 29.1388 4.95891 30.2974 4.61248C30.9434 4.42007 32.1685 4.39481 33.484 4.43222C34.799 4.47012 35.558 4.57021 35.558 4.76262C35.558 4.83939 34.353 5.50455 34.0303 5.67752C32.925 6.40731 32.4858 7.23525 31.7449 8.65887C30.985 10.1597 30.5566 10.7948 29.7203 11.2374C28.9985 11.6222 28.2796 11.8287 27.2614 11.6276Z" fill="#9BCE7A"/>
</svg>
